<mxfile host="Electron" agent="Mozilla/5.0 (Windows NT 10.0; Win64; x64) AppleWebKit/537.36 (KHTML, like Gecko) draw.io/26.0.9 Chrome/128.0.6613.186 Electron/32.2.5 Safari/537.36" version="26.0.9">
  <diagram name="Page-1" id="xi9S47bsIE7w8cn3uf-v">
    <mxGraphModel dx="1127" dy="737" grid="1" gridSize="10" guides="1" tooltips="1" connect="1" arrows="1" fold="1" page="1" pageScale="1" pageWidth="827" pageHeight="1169" math="0" shadow="0">
      <root>
        <mxCell id="0" />
        <mxCell id="1" parent="0" />
        <mxCell id="DAb5QZ5K9Ny5YGQH47_B-1" value="" style="endArrow=none;html=1;strokeWidth=3;strokeColor=#CCCCCC;labelBackgroundColor=none;fontSize=16;rounded=0;" edge="1" source="DAb5QZ5K9Ny5YGQH47_B-2" target="DAb5QZ5K9Ny5YGQH47_B-3" parent="1">
          <mxGeometry relative="1" as="geometry" />
        </mxCell>
        <mxCell id="DAb5QZ5K9Ny5YGQH47_B-2" value="" style="ellipse;whiteSpace=wrap;html=1;aspect=fixed;shadow=0;fillColor=none;strokeColor=#333333;fontSize=16;align=center;strokeWidth=2;" vertex="1" parent="1">
          <mxGeometry x="404" y="200" width="12" height="12" as="geometry" />
        </mxCell>
        <mxCell id="DAb5QZ5K9Ny5YGQH47_B-3" value="" style="ellipse;whiteSpace=wrap;html=1;aspect=fixed;shadow=0;fillColor=none;strokeColor=#333333;fontSize=16;align=center;strokeWidth=2;" vertex="1" parent="1">
          <mxGeometry x="404" y="698" width="12" height="12" as="geometry" />
        </mxCell>
        <mxCell id="DAb5QZ5K9Ny5YGQH47_B-4" value="" style="verticalLabelPosition=middle;verticalAlign=middle;html=1;shape=mxgraph.infographic.circularCallout2;dy=15;strokeColor=#10739E;labelPosition=center;align=center;fontColor=#10739E;fontStyle=1;fontSize=24;shadow=0;direction=north;" vertex="1" parent="1">
          <mxGeometry x="170" y="230" width="246" height="60" as="geometry" />
        </mxCell>
        <mxCell id="DAb5QZ5K9Ny5YGQH47_B-5" value="" style="verticalLabelPosition=middle;verticalAlign=middle;html=1;shape=mxgraph.infographic.circularCallout2;dy=15;strokeColor=#F2931E;labelPosition=center;align=center;fontColor=#F2931E;fontStyle=1;fontSize=24;shadow=0;direction=north;flipH=1;" vertex="1" parent="1">
          <mxGeometry x="404" y="300" width="246" height="60" as="geometry" />
        </mxCell>
        <mxCell id="DAb5QZ5K9Ny5YGQH47_B-6" value="" style="verticalLabelPosition=middle;verticalAlign=middle;html=1;shape=mxgraph.infographic.circularCallout2;dy=15;strokeColor=#AE4132;labelPosition=center;align=center;fontColor=#10739E;fontStyle=1;fontSize=24;shadow=0;direction=north;" vertex="1" parent="1">
          <mxGeometry x="170" y="370" width="246" height="60" as="geometry" />
        </mxCell>
        <mxCell id="DAb5QZ5K9Ny5YGQH47_B-7" value="" style="verticalLabelPosition=middle;verticalAlign=middle;html=1;shape=mxgraph.infographic.circularCallout2;dy=15;strokeColor=#23445D;labelPosition=center;align=center;fontColor=#10739E;fontStyle=1;fontSize=24;shadow=0;direction=north;flipH=1;" vertex="1" parent="1">
          <mxGeometry x="404" y="440" width="246" height="60" as="geometry" />
        </mxCell>
        <mxCell id="DAb5QZ5K9Ny5YGQH47_B-8" value="" style="verticalLabelPosition=middle;verticalAlign=middle;html=1;shape=mxgraph.infographic.circularCallout2;dy=15;strokeColor=#12AAB5;labelPosition=center;align=center;fontColor=#10739E;fontStyle=1;fontSize=24;shadow=0;direction=north;" vertex="1" parent="1">
          <mxGeometry x="170" y="510" width="246" height="60" as="geometry" />
        </mxCell>
        <mxCell id="DAb5QZ5K9Ny5YGQH47_B-9" value="" style="verticalLabelPosition=middle;verticalAlign=middle;html=1;shape=mxgraph.infographic.circularCallout2;dy=15;strokeColor=#56517E;labelPosition=center;align=center;fontColor=#10739E;fontStyle=1;fontSize=24;shadow=0;direction=north;flipH=1;" vertex="1" parent="1">
          <mxGeometry x="404" y="580" width="246" height="60" as="geometry" />
        </mxCell>
        <mxCell id="DAb5QZ5K9Ny5YGQH47_B-10" value="November 2014" style="fillColor=#10739E;strokecolor=none;rounded=1;fontColor=#FFFFFF;strokeColor=none;fontStyle=1;fontSize=14;whiteSpace=wrap;html=1;" vertex="1" parent="1">
          <mxGeometry x="1020" y="360" width="160" height="30" as="geometry" />
        </mxCell>
        <mxCell id="DAb5QZ5K9Ny5YGQH47_B-11" value="May 2017" style="fillColor=#F2931E;strokecolor=none;rounded=1;fontColor=#FFFFFF;strokeColor=none;fontStyle=1;fontSize=14;whiteSpace=wrap;html=1;" vertex="1" parent="1">
          <mxGeometry x="1125" y="150" width="160" height="30" as="geometry" />
        </mxCell>
        <mxCell id="DAb5QZ5K9Ny5YGQH47_B-12" value="September 2017" style="fillColor=#AE4132;strokecolor=none;rounded=1;fontColor=#FFFFFF;strokeColor=none;fontStyle=1;fontSize=14;whiteSpace=wrap;html=1;" vertex="1" parent="1">
          <mxGeometry x="1230" y="360" width="160" height="30" as="geometry" />
        </mxCell>
        <mxCell id="DAb5QZ5K9Ny5YGQH47_B-14" value="November 2019" style="fillColor=#12AAB5;strokecolor=none;rounded=1;fontColor=#FFFFFF;strokeColor=none;fontStyle=1;fontSize=14;whiteSpace=wrap;html=1;" vertex="1" parent="1">
          <mxGeometry x="240" y="500" width="160" height="30" as="geometry" />
        </mxCell>
        <mxCell id="DAb5QZ5K9Ny5YGQH47_B-15" value="November 2022" style="fillColor=#56517E;strokecolor=none;rounded=1;fontColor=#FFFFFF;strokeColor=none;fontStyle=1;fontSize=14;whiteSpace=wrap;html=1;" vertex="1" parent="1">
          <mxGeometry x="420" y="565" width="160" height="30" as="geometry" />
        </mxCell>
        <mxCell id="DAb5QZ5K9Ny5YGQH47_B-16" value="&lt;font style=&quot;font-size: 10px&quot;&gt;&lt;font style=&quot;font-size: 12px;&quot; color=&quot;#10739E&quot;&gt;&lt;b&gt;.Net Core come into life&lt;/b&gt;&lt;/font&gt;&lt;br&gt;&lt;br&gt;&lt;/font&gt;&lt;div&gt;&lt;font style=&quot;font-size: 10px&quot;&gt;&lt;br&gt;&lt;/font&gt;&lt;/div&gt;" style="rounded=1;strokeColor=none;fillColor=#EEEEEE;align=center;arcSize=12;verticalAlign=top;whiteSpace=wrap;html=1;fontSize=12;" vertex="1" parent="1">
          <mxGeometry x="240" y="270" width="160" height="70" as="geometry" />
        </mxCell>
        <mxCell id="DAb5QZ5K9Ny5YGQH47_B-17" value="&lt;font style=&quot;font-size: 10px&quot;&gt;&lt;font style=&quot;font-size: 12px;&quot; color=&quot;#F2931E&quot;&gt;&lt;b&gt;Work started on Try .Net&lt;/b&gt;&lt;/font&gt;&lt;br&gt;&lt;br&gt;&lt;br&gt;&lt;/font&gt;" style="rounded=1;strokeColor=none;fillColor=#EEEEEE;align=center;arcSize=12;verticalAlign=top;whiteSpace=wrap;html=1;fontSize=12;" vertex="1" parent="1">
          <mxGeometry x="420" y="340" width="160" height="70" as="geometry" />
        </mxCell>
        <mxCell id="DAb5QZ5K9Ny5YGQH47_B-18" value="&lt;font style=&quot;&quot;&gt;&lt;font style=&quot;font-size: 12px;&quot; color=&quot;#AE4132&quot;&gt;&lt;b&gt;Try .Net went live&lt;/b&gt;&lt;/font&gt;&lt;br&gt;&lt;br&gt;&lt;font size=&quot;1&quot;&gt;Customer Statisfaction (CSAT)&lt;/font&gt;&lt;/font&gt;&lt;div&gt;&lt;font style=&quot;&quot;&gt;&lt;font size=&quot;1&quot;&gt;&amp;nbsp;&lt;/font&gt;&lt;span style=&quot;font-size: x-small;&quot;&gt;↑&amp;nbsp;&amp;nbsp;&lt;/span&gt;&lt;font size=&quot;1&quot;&gt;20% ↑&lt;br&gt;&lt;br&gt;&lt;/font&gt;&lt;/font&gt;&lt;/div&gt;" style="rounded=1;strokeColor=none;fillColor=#EEEEEE;align=center;arcSize=12;verticalAlign=top;whiteSpace=wrap;html=1;fontSize=12;" vertex="1" parent="1">
          <mxGeometry x="240" y="410" width="160" height="70" as="geometry" />
        </mxCell>
        <mxCell id="DAb5QZ5K9Ny5YGQH47_B-19" value="&lt;font style=&quot;&quot;&gt;&lt;font color=&quot;#23445d&quot;&gt;&lt;b&gt;From ACI to Blazor&lt;/b&gt;&lt;/font&gt;&lt;br&gt;&lt;br&gt;&lt;br&gt;&lt;/font&gt;" style="rounded=1;strokeColor=none;fillColor=#EEEEEE;align=center;arcSize=12;verticalAlign=top;whiteSpace=wrap;html=1;fontSize=12;" vertex="1" parent="1">
          <mxGeometry x="420" y="480" width="160" height="70" as="geometry" />
        </mxCell>
        <mxCell id="DAb5QZ5K9Ny5YGQH47_B-20" value="&lt;font style=&quot;font-size: 10px&quot;&gt;&lt;font style=&quot;font-size: 12px;&quot; color=&quot;#12AAB5&quot;&gt;&lt;b&gt;Jupyter Notebooks integration&lt;/b&gt;&lt;/font&gt;&lt;br&gt;&lt;br&gt;&lt;br&gt;&lt;/font&gt;" style="rounded=1;strokeColor=none;fillColor=#EEEEEE;align=center;arcSize=12;verticalAlign=top;whiteSpace=wrap;html=1;fontSize=12;" vertex="1" parent="1">
          <mxGeometry x="240" y="550" width="160" height="70" as="geometry" />
        </mxCell>
        <mxCell id="DAb5QZ5K9Ny5YGQH47_B-21" value="&lt;font style=&quot;&quot;&gt;&lt;font color=&quot;#56517e&quot;&gt;&lt;b&gt;Polyglot Notebooks&lt;/b&gt;&lt;/font&gt;&lt;br&gt;&lt;br&gt;&lt;span style=&quot;font-size: 10px;&quot;&gt;.Net Notebooks rebranded as polyglot Notebooks&lt;/span&gt;&lt;/font&gt;" style="rounded=1;strokeColor=none;fillColor=#EEEEEE;align=center;arcSize=12;verticalAlign=top;whiteSpace=wrap;html=1;fontSize=12;" vertex="1" parent="1">
          <mxGeometry x="420" y="620" width="160" height="70" as="geometry" />
        </mxCell>
        <mxCell id="DAb5QZ5K9Ny5YGQH47_B-22" value="" style="verticalLabelPosition=bottom;verticalAlign=top;html=1;shape=mxgraph.basic.partConcEllipse;startAngle=0.25;endAngle=0.75;arcWidth=0.25;fillColor=#10739E;strokeColor=none;" vertex="1" parent="1">
          <mxGeometry x="1040" y="230" width="120" height="120" as="geometry" />
        </mxCell>
        <mxCell id="DAb5QZ5K9Ny5YGQH47_B-23" value="" style="verticalLabelPosition=bottom;verticalAlign=top;html=1;shape=mxgraph.basic.partConcEllipse;startAngle=0.75;endAngle=0.25;arcWidth=0.25;fillColor=#F2931E;strokeColor=none;" vertex="1" parent="1">
          <mxGeometry x="1145" y="230" width="120" height="120" as="geometry" />
        </mxCell>
        <mxCell id="DAb5QZ5K9Ny5YGQH47_B-24" value="" style="verticalLabelPosition=bottom;verticalAlign=top;html=1;shape=mxgraph.basic.partConcEllipse;startAngle=0.25;endAngle=0.75;arcWidth=0.25;fillColor=#AE4132;strokeColor=none;" vertex="1" parent="1">
          <mxGeometry x="1250" y="230" width="120" height="120" as="geometry" />
        </mxCell>
        <mxCell id="DAb5QZ5K9Ny5YGQH47_B-25" value="" style="verticalLabelPosition=bottom;verticalAlign=top;html=1;shape=mxgraph.basic.partConcEllipse;startAngle=0.75;endAngle=0.25;arcWidth=0.25;fillColor=#23445D;strokeColor=none;" vertex="1" parent="1">
          <mxGeometry x="1355" y="230" width="120" height="120" as="geometry" />
        </mxCell>
        <mxCell id="DAb5QZ5K9Ny5YGQH47_B-26" value="" style="verticalLabelPosition=bottom;verticalAlign=top;html=1;shape=mxgraph.basic.partConcEllipse;startAngle=0.25;endAngle=0.75;arcWidth=0.25;fillColor=#15AA96;strokeColor=none;" vertex="1" parent="1">
          <mxGeometry x="1460" y="230" width="120" height="120" as="geometry" />
        </mxCell>
        <mxCell id="DAb5QZ5K9Ny5YGQH47_B-27" value="1" style="shape=ellipse;strokeWidth=6;strokeColor=#10739E;fontSize=15;html=1;whiteSpace=wrap;fontStyle=1;fontColor=#10739E;" vertex="1" parent="1">
          <mxGeometry x="1075" y="265" width="50" height="50" as="geometry" />
        </mxCell>
        <mxCell id="DAb5QZ5K9Ny5YGQH47_B-28" value="2" style="shape=ellipse;strokeWidth=6;strokeColor=#F2931E;fontSize=15;html=1;whiteSpace=wrap;fontStyle=1;fontColor=#F2931E;" vertex="1" parent="1">
          <mxGeometry x="1180" y="265" width="50" height="50" as="geometry" />
        </mxCell>
        <mxCell id="DAb5QZ5K9Ny5YGQH47_B-29" value="3" style="shape=ellipse;strokeWidth=6;strokeColor=#AE4132;fontSize=15;html=1;whiteSpace=wrap;fontStyle=1;fontColor=#AE4132;" vertex="1" parent="1">
          <mxGeometry x="1285" y="265" width="50" height="50" as="geometry" />
        </mxCell>
        <mxCell id="DAb5QZ5K9Ny5YGQH47_B-30" value="4" style="shape=ellipse;strokeWidth=6;strokeColor=#23445D;fontSize=15;html=1;whiteSpace=wrap;fontStyle=1;fontColor=#23445D;" vertex="1" parent="1">
          <mxGeometry x="1390" y="265" width="50" height="50" as="geometry" />
        </mxCell>
        <mxCell id="DAb5QZ5K9Ny5YGQH47_B-31" value="5" style="shape=ellipse;strokeWidth=6;strokeColor=#15AA96;fontSize=15;html=1;whiteSpace=wrap;fontStyle=1;fontColor=#12AAB5;" vertex="1" parent="1">
          <mxGeometry x="1495" y="265" width="50" height="50" as="geometry" />
        </mxCell>
        <mxCell id="DAb5QZ5K9Ny5YGQH47_B-32" value="&lt;font style=&quot;font-size: 10px&quot;&gt;&lt;font style=&quot;font-size: 12px; color: rgb(16, 115, 158);&quot;&gt;&lt;b&gt;.Net Core come into life&lt;/b&gt;&lt;/font&gt;&lt;br&gt;&lt;/font&gt;" style="rounded=1;align=center;arcSize=12;verticalAlign=top;whiteSpace=wrap;html=1;fontSize=12;" vertex="1" parent="1">
          <mxGeometry x="1020" y="405" width="160" height="35" as="geometry" />
        </mxCell>
        <mxCell id="DAb5QZ5K9Ny5YGQH47_B-37" value="&lt;font style=&quot;font-size: 10px&quot;&gt;&lt;font style=&quot;font-size: 12px; color: rgb(174, 65, 50);&quot;&gt;&lt;b&gt;Try .Net comes to life&lt;/b&gt;&lt;/font&gt;&lt;br&gt;&lt;/font&gt;" style="rounded=1;align=center;arcSize=12;verticalAlign=top;whiteSpace=wrap;html=1;fontSize=12;" vertex="1" parent="1">
          <mxGeometry x="1230" y="405" width="160" height="35" as="geometry" />
        </mxCell>
        <mxCell id="DAb5QZ5K9Ny5YGQH47_B-38" value="&lt;font style=&quot;font-size: 10px&quot;&gt;&lt;b style=&quot;font-size: 12px;&quot;&gt;&lt;font style=&quot;color: rgb(242, 147, 30);&quot;&gt;Work started on Try .Net&lt;/font&gt;&lt;/b&gt;&lt;br&gt;&lt;/font&gt;" style="rounded=1;align=center;arcSize=12;verticalAlign=top;whiteSpace=wrap;html=1;fontSize=12;" vertex="1" parent="1">
          <mxGeometry x="1125" y="188.5" width="160" height="35" as="geometry" />
        </mxCell>
        <mxCell id="DAb5QZ5K9Ny5YGQH47_B-40" value="May 2019" style="fillColor=#23445D;strokecolor=none;rounded=1;fontColor=#FFFFFF;strokeColor=none;fontStyle=1;fontSize=14;whiteSpace=wrap;html=1;" vertex="1" parent="1">
          <mxGeometry x="1335" y="150" width="160" height="30" as="geometry" />
        </mxCell>
        <mxCell id="DAb5QZ5K9Ny5YGQH47_B-42" value="&lt;font style=&quot;font-size: 10px&quot;&gt;&lt;font style=&quot;font-size: 12px; color: rgb(35, 68, 93);&quot;&gt;&lt;b&gt;From ACI to Blazor&lt;/b&gt;&lt;/font&gt;&lt;br style=&quot;font-size: 12px;&quot;&gt;&lt;/font&gt;" style="rounded=1;align=center;arcSize=12;verticalAlign=top;whiteSpace=wrap;html=1;fontSize=12;" vertex="1" parent="1">
          <mxGeometry x="1336" y="188.5" width="160" height="35" as="geometry" />
        </mxCell>
        <mxCell id="DAb5QZ5K9Ny5YGQH47_B-43" value="November 2019" style="fillColor=#15AA96;strokecolor=none;rounded=1;fontColor=#FFFFFF;strokeColor=none;fontStyle=1;fontSize=14;whiteSpace=wrap;html=1;" vertex="1" parent="1">
          <mxGeometry x="1450" y="360" width="160" height="30" as="geometry" />
        </mxCell>
        <mxCell id="DAb5QZ5K9Ny5YGQH47_B-44" value="&lt;font style=&quot;font-size: 10px&quot;&gt;&lt;font style=&quot;color: rgb(21, 170, 150);&quot;&gt;&lt;font style=&quot;font-size: 12px;&quot;&gt;&lt;b style=&quot;&quot;&gt;Jupyter Notebooks integration&lt;/b&gt;&lt;/font&gt;&lt;br&gt;&lt;/font&gt;&lt;br&gt;&lt;/font&gt;" style="rounded=1;align=center;arcSize=12;verticalAlign=top;whiteSpace=wrap;html=1;fontSize=12;" vertex="1" parent="1">
          <mxGeometry x="1450" y="405" width="160" height="45" as="geometry" />
        </mxCell>
        <mxCell id="DAb5QZ5K9Ny5YGQH47_B-48" value="" style="verticalLabelPosition=bottom;verticalAlign=top;html=1;shape=mxgraph.basic.partConcEllipse;startAngle=0.75;endAngle=0.25;arcWidth=0.25;fillColor=#56517E;strokeColor=none;" vertex="1" parent="1">
          <mxGeometry x="1565" y="231" width="120" height="120" as="geometry" />
        </mxCell>
        <mxCell id="DAb5QZ5K9Ny5YGQH47_B-49" value="6" style="shape=ellipse;strokeWidth=6;strokeColor=#56517E;fontSize=15;html=1;whiteSpace=wrap;fontStyle=1;fontColor=#23445D;" vertex="1" parent="1">
          <mxGeometry x="1600" y="266" width="50" height="50" as="geometry" />
        </mxCell>
        <mxCell id="DAb5QZ5K9Ny5YGQH47_B-50" value="November 2022" style="fillColor=#56517E;strokecolor=none;rounded=1;fontColor=#FFFFFF;strokeColor=none;fontStyle=1;fontSize=14;whiteSpace=wrap;html=1;" vertex="1" parent="1">
          <mxGeometry x="1545" y="150" width="160" height="30" as="geometry" />
        </mxCell>
        <mxCell id="DAb5QZ5K9Ny5YGQH47_B-51" value="&lt;font style=&quot;font-size: 10px&quot;&gt;&lt;font style=&quot;font-size: 12px;&quot;&gt;&lt;b&gt;Polyglot Notebooks&lt;/b&gt;&lt;/font&gt;&lt;br style=&quot;font-size: 12px;&quot;&gt;&lt;/font&gt;" style="rounded=1;align=center;arcSize=12;verticalAlign=top;whiteSpace=wrap;html=1;fontSize=12;" vertex="1" parent="1">
          <mxGeometry x="1545" y="188.5" width="160" height="35" as="geometry" />
        </mxCell>
        <mxCell id="DAb5QZ5K9Ny5YGQH47_B-52" value="" style="verticalLabelPosition=bottom;verticalAlign=top;html=1;shape=mxgraph.basic.partConcEllipse;startAngle=0.25;endAngle=0.75;arcWidth=0.25;fillColor=#a0522d;strokeColor=#6D1F00;fontColor=#ffffff;" vertex="1" parent="1">
          <mxGeometry x="1670" y="229" width="120" height="120" as="geometry" />
        </mxCell>
        <mxCell id="DAb5QZ5K9Ny5YGQH47_B-53" value="&lt;font style=&quot;color: rgb(109, 31, 0);&quot;&gt;7&lt;/font&gt;" style="shape=ellipse;strokeWidth=6;strokeColor=#A0522D;fontSize=15;html=1;whiteSpace=wrap;fontStyle=1;fontColor=#12AAB5;" vertex="1" parent="1">
          <mxGeometry x="1705" y="264" width="50" height="50" as="geometry" />
        </mxCell>
        <mxCell id="DAb5QZ5K9Ny5YGQH47_B-55" value="February 2025" style="fillColor=#A0522D;strokecolor=none;rounded=1;fontColor=#FFFFFF;strokeColor=none;fontStyle=1;fontSize=14;whiteSpace=wrap;html=1;" vertex="1" parent="1">
          <mxGeometry x="1650" y="360" width="160" height="30" as="geometry" />
        </mxCell>
        <mxCell id="DAb5QZ5K9Ny5YGQH47_B-56" value="&lt;b&gt;&lt;font style=&quot;color: rgb(160, 82, 45);&quot;&gt;You are here&lt;/font&gt;&lt;/b&gt;" style="rounded=1;align=center;arcSize=12;verticalAlign=top;whiteSpace=wrap;html=1;fontSize=12;" vertex="1" parent="1">
          <mxGeometry x="1652" y="405" width="160" height="25" as="geometry" />
        </mxCell>
      </root>
    </mxGraphModel>
  </diagram>
</mxfile>
